<?xml version="1.0" encoding="UTF-8"?>
<svg version="1.1" xmlns="http://www.w3.org/2000/svg" width="512" height="512">
<path d="M0 0 C1.12597077 0.90827862 2.2536674 1.81442066 3.3828125 2.71875 C17.32482968 13.9799836 17.32482968 13.9799836 18.421875 22.13671875 C18.70173215 28.95434981 18.26274914 33.61547477 14 39 C8.43994719 44.68191698 3.51613251 46.18376033 -4.20703125 46.4609375 C-11.11678968 45.32058576 -16.28270149 41.24454764 -21.3125 36.625 C-46.16423596 14.69699768 -75.74085173 -2.86295629 -109.85546875 -3.23828125 C-110.95880302 -3.25283607 -110.95880302 -3.25283607 -112.08442688 -3.26768494 C-114.45217391 -3.29251474 -116.81963595 -3.30519769 -119.1875 -3.3125 C-119.99413086 -3.31511841 -120.80076172 -3.31773682 -121.63183594 -3.32043457 C-134.16434444 -3.32479826 -145.90342306 -2.51717709 -158 1 C-159.08796875 1.28875 -160.1759375 1.5775 -161.296875 1.875 C-178.94559973 7.10425177 -194.7739344 17.62885513 -209 29 C-209.9178125 29.73347656 -210.835625 30.46695313 -211.78125 31.22265625 C-216.24727087 34.84144669 -220.63940948 38.53821054 -224.99023438 42.29394531 C-268.0373035 79.44055602 -313.72902964 100.53971438 -371.77758789 96.53564453 C-414.37021199 93.12285778 -449.30219143 74.91616652 -481 47 C-482.44246094 45.77603516 -482.44246094 45.77603516 -483.9140625 44.52734375 C-484.80867188 43.75519531 -485.70328125 42.98304688 -486.625 42.1875 C-487.78902344 41.18783203 -487.78902344 41.18783203 -488.9765625 40.16796875 C-494.08682 34.69269285 -494.59047216 29.40328983 -494.41796875 22.19921875 C-493.63546314 16.20975995 -490.77971667 12.73408291 -486.5625 8.625 C-481.37556163 5.33572201 -476.11065927 4.09687431 -470 5 C-463.60874376 7.10531198 -458.91400621 10.37871573 -454.0625 14.9375 C-422.94453712 42.96888764 -387.72311515 56.95663003 -345.79931641 54.89160156 C-306.22294813 52.56906464 -277.25122039 31.67070827 -248.37597656 6.58935547 C-235.71133865 -4.38016937 -222.59730664 -14.7025008 -208 -23 C-206.99839844 -23.58346191 -206.99839844 -23.58346191 -205.9765625 -24.17871094 C-139.3525132 -62.69198131 -56.98882966 -48.23402395 0 0 Z " fill="#000000" transform="translate(494,121)"/>
<path d="M0 0 C0.96164062 0.81597656 1.92328125 1.63195312 2.9140625 2.47265625 C3.80867188 3.24480469 4.70328125 4.01695312 5.625 4.8125 C6.78902344 5.81216797 6.78902344 5.81216797 7.9765625 6.83203125 C13.08682 12.30730715 13.59047216 17.59671017 13.41796875 24.80078125 C12.63546314 30.79024005 9.77971667 34.26591709 5.5625 38.375 C0.37556163 41.66427799 -4.88934073 42.90312569 -11 42 C-17.39125624 39.89468802 -22.08599379 36.62128427 -26.9375 32.0625 C-58.05546288 4.03111236 -93.27688485 -9.95663003 -135.20068359 -7.89160156 C-174.67107972 -5.57528361 -203.83512724 15.23599758 -232.57568359 40.37841797 C-276.67566835 78.9043223 -322.45905073 95.07705384 -381 92 C-419.17520628 89.21235816 -452.25088145 71.33258729 -481 47 C-482.12597077 46.09172138 -483.2536674 45.18557934 -484.3828125 44.28125 C-498.32482968 33.0200164 -498.32482968 33.0200164 -499.421875 24.86328125 C-499.70173215 18.04565019 -499.26274914 13.38452523 -495 8 C-489.43994719 2.31808302 -484.51613251 0.81623967 -476.79296875 0.5390625 C-469.88321032 1.67941424 -464.71729851 5.75545236 -459.6875 10.375 C-434.83576404 32.30300232 -405.25914827 49.86295629 -371.14453125 50.23828125 C-370.40897507 50.24798447 -369.67341888 50.25768768 -368.91557312 50.26768494 C-366.54782609 50.29251474 -364.18036405 50.30519769 -361.8125 50.3125 C-361.00586914 50.31511841 -360.19923828 50.31773682 -359.36816406 50.32043457 C-346.83565556 50.32479826 -335.09657694 49.51717709 -323 46 C-321.91203125 45.71125 -320.8240625 45.4225 -319.703125 45.125 C-302.05440027 39.89574823 -286.2260656 29.37114487 -272 18 C-271.0821875 17.26652344 -270.164375 16.53304687 -269.21875 15.77734375 C-264.75272913 12.15855331 -260.36059052 8.46178946 -256.00976562 4.70605469 C-185.32837896 -56.2870398 -90.19174699 -71.4970921 0 0 Z " fill="#000000" transform="translate(499,344)"/>
<path d="M0 0 C1.98915743 1.64333729 3.98694263 3.24641687 6.0234375 4.828125 C13.01296974 10.31509694 17.97614912 14.37211723 19.23828125 23.390625 C19.63307655 30.19689605 18.91194418 35.09691312 14.625 40.5078125 C9.75482265 45.36751635 5.1961959 46.57144327 -1.62890625 46.9453125 C-8.48487875 46.67799247 -12.08578105 44.7391194 -17.19140625 40.3203125 C-17.9186792 39.69237793 -17.9186792 39.69237793 -18.66064453 39.05175781 C-20.93456785 37.08718817 -23.20606069 35.12001489 -25.4675293 33.14111328 C-57.23751912 5.64858513 -91.57248302 -4.53281516 -133.19140625 -2.6796875 C-167.46408019 -0.16845572 -194.56231307 17.54549359 -219.859375 39.44921875 C-224.55373876 43.50910049 -229.36512809 47.41890816 -234.19140625 51.3203125 C-235.35443693 52.27701529 -236.51718103 53.23406655 -237.6796875 54.19140625 C-246.17080606 61.14122161 -254.87184952 67.52409064 -264.19140625 73.3203125 C-265.12025635 73.90208252 -265.12025635 73.90208252 -266.06787109 74.49560547 C-304.88132793 98.47128394 -354.84914675 103.1760083 -398.81640625 93.0703125 C-430.78894759 85.25415766 -456.66698283 67.88468628 -481.3515625 46.73046875 C-483.17255906 45.18500124 -485.02626974 43.67682173 -486.91796875 42.21875 C-491.21862217 38.62748271 -492.8348434 34.7339687 -493.6484375 29.2265625 C-493.98999863 22.42711301 -493.29250616 17.54087132 -489.0078125 12.1328125 C-484.13763515 7.27310865 -479.5790084 6.06918173 -472.75390625 5.6953125 C-465.89793375 5.96263253 -462.29703145 7.9015056 -457.19140625 12.3203125 C-456.70655762 12.73893555 -456.22170898 13.15755859 -455.72216797 13.58886719 C-453.44824465 15.55343683 -451.17675181 17.52061011 -448.9152832 19.49951172 C-417.14529338 46.99203987 -382.81032948 57.17344016 -341.19140625 55.3203125 C-306.91873231 52.80908072 -279.82049943 35.09513141 -254.5234375 13.19140625 C-249.82907374 9.13152451 -245.01768441 5.22171684 -240.19140625 1.3203125 C-239.02837557 0.36360971 -237.86563147 -0.59344155 -236.703125 -1.55078125 C-228.21200644 -8.50059661 -219.51096298 -14.88346564 -210.19140625 -20.6796875 C-209.57217285 -21.06753418 -208.95293945 -21.45538086 -208.31494141 -21.85498047 C-142.05805226 -62.78289567 -57.55669373 -47.94998868 0 0 Z " fill="#000000" transform="translate(493.19140625,229.6796875)"/>
</svg>
